<svg id="Layer_1" data-name="Layer 1" xmlns="http://www.w3.org/2000/svg" viewBox="0 0 512 512"><defs><style>.cls-1{fill:#2b374f;}</style></defs><title>fish-glyph</title><path class="cls-1" d="M508.93,34.26a36.25,36.25,0,0,0-31.19-31.2c-35.6-4.93-126.06-10.73-197.5,42.07a37.48,37.48,0,0,0-15.11,27.4,37,37,0,0,0,10.67,29l58.3,58.31-33.46,33.46-48.22-48.21a12.77,12.77,0,0,0-18.06,18.06l48.22,48.21-27.74,27.74-36.77-36.77A12.77,12.77,0,1,0,200,220.38l36.77,36.77-27.74,27.74-25.32-25.32a12.77,12.77,0,1,0-18.06,18.06L191,302.94l-27.74,27.74-13.87-13.87a12.77,12.77,0,1,0-18.06,18.06l13.87,13.87-29.68,29.68A28.23,28.23,0,0,0,105,376.86L27.7,380.18A29,29,0,0,0,8.53,429.61l73.85,73.85A28.62,28.62,0,0,0,102.72,512a29.41,29.41,0,0,0,10.64-2,28.61,28.61,0,0,0,18.46-25.7l3.32-77.22a28.73,28.73,0,0,0-1.58-10.56l29.69-29.69,13.87,13.87a12.77,12.77,0,1,0,18.06-18.06l-13.87-13.87L209.05,321l25.32,25.32a12.77,12.77,0,1,0,18.06-18.06l-25.32-25.32,27.74-27.74L291.62,312a12.77,12.77,0,1,0,18.06-18.06l-36.77-36.77,27.74-27.74,48.22,48.22a12.77,12.77,0,0,0,18.06-18.06l-48.22-48.22,33.46-33.46,58.3,58.31A37,37,0,0,0,436.64,247c.93,0,1.87,0,2.81-.1a37.51,37.51,0,0,0,27.39-15.11C519.66,160.31,513.87,69.84,508.93,34.26ZM398,114a24.29,24.29,0,1,1,0-34.35A24.29,24.29,0,0,1,398,114Z"/></svg>